G75*
%MOIN*%
%OFA0B0*%
%FSLAX25Y25*%
%IPPOS*%
%LPD*%
%AMOC8*
5,1,8,0,0,1.08239X$1,22.5*
%
%ADD10C,0.00600*%
%ADD11C,0.07100*%
%ADD12OC8,0.07100*%
%ADD13C,0.11800*%
%ADD14R,0.01863X0.06137*%
%ADD15R,0.06137X0.01863*%
%ADD16R,0.06550X0.02900*%
%ADD17R,0.05131X0.04737*%
%ADD18R,0.02772X0.05569*%
%ADD19R,0.01800X0.04300*%
%ADD20R,0.10600X0.07700*%
%ADD21R,0.07350X0.02900*%
%ADD22R,0.04737X0.05131*%
%ADD23R,0.07099X0.07887*%
%ADD24R,0.07887X0.07099*%
%ADD25C,0.06343*%
%ADD26C,0.08674*%
%ADD27C,0.05800*%
%ADD28R,0.06769X0.02972*%
%ADD29R,0.06950X0.02500*%
%ADD30R,0.04343X0.02178*%
%ADD31OC8,0.08300*%
%ADD32R,0.05569X0.02772*%
%ADD33R,0.08280X0.12611*%
%ADD34R,0.06850X0.01900*%
%ADD35R,0.02500X0.06950*%
%ADD36R,0.07099X0.11430*%
%ADD37R,0.05918X0.06706*%
%ADD38C,0.03600*%
%ADD39C,0.04369*%
%ADD40R,0.03600X0.03600*%
%ADD41C,0.04762*%
%ADD42C,0.07400*%
D10*
X0085506Y0074200D02*
X0085506Y0104200D01*
X0085506Y0074200D02*
X0115506Y0074200D01*
X0085506Y0438000D02*
X0085506Y0468000D01*
X0115506Y0468000D01*
X0685506Y0468000D02*
X0715506Y0468000D01*
X0715506Y0438000D01*
X0715506Y0104200D02*
X0715506Y0074200D01*
X0685506Y0074200D01*
D11*
X0694506Y0426100D03*
D12*
X0684506Y0426100D03*
X0674506Y0426100D03*
X0674506Y0416100D03*
X0684506Y0416100D03*
X0684506Y0406100D03*
X0674506Y0406100D03*
X0674506Y0396100D03*
X0684506Y0396100D03*
X0684506Y0386100D03*
X0674506Y0386100D03*
X0674506Y0376100D03*
X0684506Y0376100D03*
X0684506Y0366100D03*
X0674506Y0366100D03*
X0674506Y0356100D03*
X0684506Y0356100D03*
X0684506Y0346100D03*
X0674506Y0346100D03*
X0674506Y0336100D03*
X0674506Y0326100D03*
X0684506Y0326100D03*
X0684506Y0336100D03*
X0694506Y0336100D03*
X0694506Y0326100D03*
X0694506Y0316100D03*
X0684506Y0316100D03*
X0674506Y0316100D03*
X0674506Y0306100D03*
X0684506Y0306100D03*
X0684506Y0296100D03*
X0674506Y0296100D03*
X0674506Y0286100D03*
X0684506Y0286100D03*
X0684506Y0276100D03*
X0674506Y0276100D03*
X0674506Y0266100D03*
X0684506Y0266100D03*
X0684506Y0256100D03*
X0674506Y0256100D03*
X0674506Y0246100D03*
X0684506Y0246100D03*
X0684506Y0236100D03*
X0674506Y0236100D03*
X0674506Y0226100D03*
X0684506Y0226100D03*
X0684506Y0216100D03*
X0674506Y0216100D03*
X0674506Y0206100D03*
X0684506Y0206100D03*
X0684506Y0196100D03*
X0674506Y0196100D03*
X0674506Y0186100D03*
X0684506Y0186100D03*
X0684506Y0176100D03*
X0674506Y0176100D03*
X0674506Y0166100D03*
X0684506Y0166100D03*
X0684506Y0156100D03*
X0674506Y0156100D03*
X0674506Y0146100D03*
X0674506Y0136100D03*
X0684506Y0136100D03*
X0684506Y0146100D03*
X0694506Y0146100D03*
X0694506Y0136100D03*
X0694506Y0126100D03*
X0684506Y0126100D03*
X0674506Y0126100D03*
X0674506Y0116100D03*
X0684506Y0116100D03*
X0694506Y0116100D03*
X0694506Y0156100D03*
X0694506Y0166100D03*
X0694506Y0176100D03*
X0694506Y0186100D03*
X0694506Y0196100D03*
X0694506Y0206100D03*
X0694506Y0216100D03*
X0694506Y0226100D03*
X0694506Y0236100D03*
X0694506Y0246100D03*
X0694506Y0256100D03*
X0694506Y0266100D03*
X0694506Y0276100D03*
X0694506Y0286100D03*
X0694506Y0296100D03*
X0694506Y0306100D03*
X0694506Y0346100D03*
X0694506Y0356100D03*
X0694506Y0366100D03*
X0694506Y0376100D03*
X0694506Y0386100D03*
X0694506Y0396100D03*
X0694506Y0406100D03*
X0694506Y0416100D03*
D13*
X0704506Y0446100D03*
X0704506Y0096100D03*
X0099506Y0096100D03*
X0099506Y0446100D03*
D14*
X0279680Y0202548D03*
X0281648Y0202548D03*
X0283617Y0202548D03*
X0285585Y0202548D03*
X0287554Y0202548D03*
X0289522Y0202548D03*
X0291491Y0202548D03*
X0293459Y0202548D03*
X0295428Y0202548D03*
X0297396Y0202548D03*
X0299365Y0202548D03*
X0301333Y0202548D03*
X0301333Y0169652D03*
X0299365Y0169652D03*
X0297396Y0169652D03*
X0295428Y0169652D03*
X0293459Y0169652D03*
X0291491Y0169652D03*
X0289522Y0169652D03*
X0287554Y0169652D03*
X0285585Y0169652D03*
X0283617Y0169652D03*
X0281648Y0169652D03*
X0279680Y0169652D03*
D15*
X0274058Y0175273D03*
X0274058Y0177242D03*
X0274058Y0179210D03*
X0274058Y0181179D03*
X0274058Y0183147D03*
X0274058Y0185116D03*
X0274058Y0187084D03*
X0274058Y0189053D03*
X0274058Y0191021D03*
X0274058Y0192990D03*
X0274058Y0194958D03*
X0274058Y0196927D03*
X0306954Y0196927D03*
X0306954Y0194958D03*
X0306954Y0192990D03*
X0306954Y0191021D03*
X0306954Y0189053D03*
X0306954Y0187084D03*
X0306954Y0185116D03*
X0306954Y0183147D03*
X0306954Y0181179D03*
X0306954Y0179210D03*
X0306954Y0177242D03*
X0306954Y0175273D03*
D16*
X0294731Y0152100D03*
X0294731Y0147100D03*
X0294731Y0142100D03*
X0294731Y0137100D03*
X0273281Y0137100D03*
X0273281Y0142100D03*
X0273281Y0147100D03*
X0273281Y0152100D03*
X0273281Y0220100D03*
X0273281Y0225100D03*
X0273281Y0230100D03*
X0273281Y0235100D03*
X0294731Y0235100D03*
X0294731Y0230100D03*
X0294731Y0225100D03*
X0294731Y0220100D03*
D17*
X0286753Y0212000D03*
X0280060Y0212000D03*
X0308206Y0212954D03*
X0308206Y0219646D03*
X0315106Y0219446D03*
X0315106Y0212754D03*
X0287853Y0161100D03*
X0281160Y0161100D03*
X0332160Y0136000D03*
X0338853Y0136000D03*
X0228053Y0215900D03*
X0221360Y0215900D03*
X0204306Y0223254D03*
X0204306Y0229946D03*
X0212160Y0247600D03*
X0218853Y0247600D03*
X0249760Y0274500D03*
X0256453Y0274500D03*
X0261960Y0305100D03*
X0268653Y0305100D03*
X0293560Y0329500D03*
X0300253Y0329500D03*
X0263653Y0335500D03*
X0263653Y0341100D03*
X0256960Y0341100D03*
X0256960Y0335500D03*
X0194853Y0365300D03*
X0194853Y0371700D03*
X0188160Y0371700D03*
X0188160Y0365300D03*
X0180106Y0365446D03*
X0180106Y0358754D03*
X0180453Y0377500D03*
X0173760Y0377500D03*
X0173706Y0386554D03*
X0173706Y0393246D03*
X0176706Y0406354D03*
X0176706Y0413046D03*
X0146306Y0395846D03*
X0146306Y0389154D03*
X0188160Y0378700D03*
X0194853Y0378700D03*
X0176906Y0336246D03*
X0176906Y0329554D03*
X0173706Y0317446D03*
X0173706Y0310754D03*
X0188160Y0303900D03*
X0194853Y0303900D03*
X0194853Y0298100D03*
X0194853Y0292100D03*
X0188160Y0292100D03*
X0188160Y0298100D03*
X0179853Y0292900D03*
X0173160Y0292900D03*
X0179706Y0284646D03*
X0179706Y0277954D03*
X0149106Y0313554D03*
X0149106Y0320246D03*
X0261160Y0381700D03*
X0267853Y0381700D03*
X0293360Y0406500D03*
X0300053Y0406500D03*
X0263653Y0412700D03*
X0263653Y0418500D03*
X0256960Y0418500D03*
X0256960Y0412700D03*
X0349560Y0365300D03*
X0356253Y0365300D03*
X0356653Y0288900D03*
X0349960Y0288900D03*
X0223306Y0200346D03*
X0223306Y0193654D03*
X0223506Y0169446D03*
X0223506Y0162754D03*
X0218353Y0143100D03*
X0211660Y0143100D03*
X0203506Y0133446D03*
X0203506Y0126754D03*
X0213160Y0111700D03*
X0219853Y0111700D03*
X0185506Y0121754D03*
X0185506Y0128446D03*
X0185206Y0201854D03*
X0185206Y0208546D03*
X0591606Y0244354D03*
X0591606Y0251046D03*
X0591606Y0256654D03*
X0591606Y0263346D03*
X0603660Y0265500D03*
X0610353Y0265500D03*
D18*
X0338746Y0129028D03*
X0331266Y0129028D03*
X0331266Y0119972D03*
X0335006Y0119972D03*
X0338746Y0119972D03*
X0219246Y0127572D03*
X0215506Y0127572D03*
X0211766Y0127572D03*
X0211766Y0136628D03*
X0219246Y0136628D03*
X0219246Y0231572D03*
X0215506Y0231572D03*
X0211766Y0231572D03*
X0211766Y0240628D03*
X0219246Y0240628D03*
D19*
X0214459Y0187050D03*
X0212491Y0187050D03*
X0210522Y0187050D03*
X0208554Y0187050D03*
X0208554Y0175150D03*
X0210522Y0175150D03*
X0212491Y0175150D03*
X0214459Y0175150D03*
D20*
X0211506Y0181100D03*
D21*
X0185631Y0152600D03*
X0185631Y0147600D03*
X0185631Y0142600D03*
X0185631Y0137600D03*
X0163381Y0137600D03*
X0163381Y0142600D03*
X0163381Y0147600D03*
X0163381Y0152600D03*
X0163381Y0216800D03*
X0163381Y0221800D03*
X0163381Y0226800D03*
X0163381Y0231800D03*
X0185631Y0231800D03*
X0185631Y0226800D03*
X0185631Y0221800D03*
X0185631Y0216800D03*
D22*
X0176253Y0208300D03*
X0169560Y0208300D03*
X0200006Y0186446D03*
X0200006Y0179754D03*
X0223206Y0179854D03*
X0223206Y0186546D03*
X0257060Y0190200D03*
X0263753Y0190200D03*
X0263753Y0181800D03*
X0257060Y0181800D03*
X0246853Y0136100D03*
X0240160Y0136100D03*
X0233853Y0136100D03*
X0227160Y0136100D03*
X0175853Y0129100D03*
X0169160Y0129100D03*
X0316506Y0182754D03*
X0316506Y0189446D03*
X0366906Y0192646D03*
X0366906Y0185954D03*
X0407506Y0188846D03*
X0407506Y0182154D03*
X0433506Y0184154D03*
X0433506Y0190846D03*
X0591606Y0296654D03*
X0591606Y0303346D03*
X0589006Y0366554D03*
X0589006Y0373246D03*
X0589506Y0416654D03*
X0589506Y0423346D03*
X0379306Y0402046D03*
X0379306Y0395354D03*
X0299053Y0399300D03*
X0292360Y0399300D03*
X0281653Y0418300D03*
X0274960Y0418300D03*
X0293160Y0425300D03*
X0299853Y0425300D03*
X0205053Y0405900D03*
X0198360Y0405900D03*
X0189853Y0414700D03*
X0183160Y0414700D03*
X0167053Y0395900D03*
X0160360Y0395900D03*
X0153706Y0395846D03*
X0153706Y0389154D03*
X0173560Y0371500D03*
X0180253Y0371500D03*
X0198960Y0387100D03*
X0205653Y0387100D03*
X0190853Y0338500D03*
X0184160Y0338500D03*
X0199160Y0328900D03*
X0205853Y0328900D03*
X0205653Y0311100D03*
X0198960Y0311100D03*
X0180053Y0299700D03*
X0173360Y0299700D03*
X0155506Y0313354D03*
X0155506Y0320046D03*
X0161160Y0320100D03*
X0167853Y0320100D03*
X0229460Y0240600D03*
X0236153Y0240600D03*
X0243060Y0240600D03*
X0249753Y0240600D03*
X0293360Y0322700D03*
X0300053Y0322700D03*
X0283153Y0341000D03*
X0276460Y0341000D03*
X0293960Y0350700D03*
X0300653Y0350700D03*
X0379706Y0324246D03*
X0379706Y0317554D03*
D23*
X0318018Y0235600D03*
X0306994Y0235600D03*
X0254118Y0250800D03*
X0243094Y0250800D03*
X0224018Y0222800D03*
X0212994Y0222800D03*
X0185118Y0240000D03*
X0174094Y0240000D03*
X0176618Y0199000D03*
X0165594Y0199000D03*
X0202394Y0199500D03*
X0213418Y0199500D03*
X0205018Y0164100D03*
X0193994Y0164100D03*
X0184018Y0162600D03*
X0172994Y0162600D03*
X0176018Y0120100D03*
X0164994Y0120100D03*
X0211894Y0118800D03*
X0222918Y0118800D03*
X0306494Y0152100D03*
X0317518Y0152100D03*
X0334994Y0107500D03*
X0346018Y0107500D03*
X0590994Y0272100D03*
X0602018Y0272100D03*
X0598594Y0288000D03*
X0609618Y0288000D03*
X0608818Y0357100D03*
X0597794Y0357100D03*
X0597794Y0406400D03*
X0608818Y0406400D03*
D24*
X0623606Y0417388D03*
X0623606Y0428412D03*
X0618706Y0377112D03*
X0618706Y0366088D03*
X0622106Y0308512D03*
X0622106Y0297488D03*
X0624406Y0261412D03*
X0624406Y0250388D03*
X0331006Y0207112D03*
X0331006Y0196088D03*
X0265006Y0225788D03*
X0265006Y0236812D03*
X0232406Y0204112D03*
X0232406Y0193088D03*
X0232506Y0168612D03*
X0232506Y0157588D03*
X0265006Y0152112D03*
X0265006Y0141088D03*
X0233506Y0124612D03*
X0233506Y0113588D03*
X0150206Y0130688D03*
X0150206Y0141712D03*
X0154506Y0206988D03*
X0154506Y0218012D03*
X0213306Y0267788D03*
X0213306Y0278812D03*
X0234506Y0303588D03*
X0234506Y0314612D03*
X0234706Y0325788D03*
X0234706Y0336812D03*
X0217706Y0325812D03*
X0217706Y0314788D03*
X0234706Y0381188D03*
X0234706Y0392212D03*
X0234706Y0402588D03*
X0234706Y0413612D03*
X0217706Y0402412D03*
X0217706Y0391388D03*
X0323006Y0130012D03*
X0323006Y0118988D03*
D25*
X0134506Y0138100D03*
X0134506Y0148100D03*
X0134506Y0217100D03*
X0134506Y0227100D03*
X0135506Y0310100D03*
X0135506Y0320100D03*
X0133506Y0386100D03*
X0133506Y0396100D03*
D26*
X0113506Y0416100D03*
X0113506Y0376100D03*
X0115506Y0340100D03*
X0115506Y0300100D03*
X0114506Y0247100D03*
X0114506Y0207100D03*
X0114506Y0168100D03*
X0114506Y0128100D03*
D27*
X0312506Y0312700D03*
X0318306Y0317900D03*
X0323306Y0322700D03*
X0397106Y0322800D03*
X0397106Y0330600D03*
X0405006Y0330600D03*
X0405006Y0322800D03*
X0405006Y0314900D03*
X0397106Y0314900D03*
X0397106Y0307000D03*
X0397106Y0299100D03*
X0405006Y0299100D03*
X0405006Y0307000D03*
X0405006Y0291300D03*
X0397106Y0291300D03*
X0397106Y0338500D03*
X0405006Y0338500D03*
X0405006Y0367900D03*
X0397106Y0367900D03*
X0397106Y0375700D03*
X0397106Y0383600D03*
X0405006Y0383600D03*
X0405006Y0375700D03*
X0405006Y0391500D03*
X0397106Y0391500D03*
X0397106Y0399400D03*
X0405006Y0399400D03*
X0405006Y0407200D03*
X0397106Y0407200D03*
X0397106Y0415100D03*
X0405006Y0415100D03*
X0323306Y0399300D03*
X0317906Y0393700D03*
X0312106Y0389300D03*
X0451506Y0205300D03*
X0451506Y0197400D03*
X0459406Y0197400D03*
X0459406Y0205300D03*
X0459406Y0189600D03*
X0451506Y0189600D03*
X0451506Y0181700D03*
X0451506Y0173800D03*
X0459406Y0173800D03*
X0459406Y0181700D03*
X0459406Y0165900D03*
X0459406Y0158100D03*
X0451506Y0158100D03*
X0451506Y0165900D03*
X0378106Y0163700D03*
X0374306Y0169400D03*
X0377906Y0177300D03*
X0374106Y0157100D03*
D28*
X0600579Y0250260D03*
X0600579Y0257740D03*
X0610034Y0257740D03*
X0610034Y0254000D03*
X0610034Y0250260D03*
X0609334Y0296760D03*
X0609334Y0300500D03*
X0609334Y0304240D03*
X0599879Y0304240D03*
X0599879Y0296760D03*
X0599379Y0416460D03*
X0608834Y0416460D03*
X0608834Y0420200D03*
X0608834Y0423940D03*
X0599379Y0423940D03*
D29*
X0359181Y0199939D03*
X0359181Y0197380D03*
X0359181Y0194820D03*
X0359181Y0192261D03*
X0340831Y0192261D03*
X0340831Y0194820D03*
X0340831Y0197380D03*
X0340831Y0199939D03*
X0241481Y0273661D03*
X0241481Y0276220D03*
X0241481Y0278780D03*
X0241481Y0281339D03*
X0223131Y0281339D03*
X0223131Y0278780D03*
X0223131Y0276220D03*
X0223131Y0273661D03*
D30*
X0356587Y0293543D03*
X0356587Y0296102D03*
X0356587Y0298661D03*
X0356587Y0301220D03*
X0356587Y0303780D03*
X0356587Y0306339D03*
X0356587Y0308898D03*
X0356587Y0311457D03*
X0379225Y0311457D03*
X0379225Y0308898D03*
X0379225Y0306339D03*
X0379225Y0303780D03*
X0379225Y0301220D03*
X0379225Y0298661D03*
X0379225Y0296102D03*
X0379225Y0293543D03*
X0379225Y0370143D03*
X0379225Y0372702D03*
X0379225Y0375261D03*
X0379225Y0377820D03*
X0379225Y0380380D03*
X0379225Y0382939D03*
X0379225Y0385498D03*
X0379225Y0388057D03*
X0356587Y0388057D03*
X0356587Y0385498D03*
X0356587Y0382939D03*
X0356587Y0380380D03*
X0356587Y0377820D03*
X0356587Y0375261D03*
X0356587Y0372702D03*
X0356587Y0370143D03*
X0406587Y0177057D03*
X0406587Y0174498D03*
X0406587Y0171939D03*
X0406587Y0169380D03*
X0406587Y0166820D03*
X0406587Y0164261D03*
X0406587Y0161702D03*
X0406587Y0159143D03*
X0429225Y0159143D03*
X0429225Y0161702D03*
X0429225Y0164261D03*
X0429225Y0166820D03*
X0429225Y0169380D03*
X0429225Y0171939D03*
X0429225Y0174498D03*
X0429225Y0177057D03*
D31*
X0369006Y0220700D03*
X0354006Y0220700D03*
X0339006Y0220700D03*
D32*
X0597679Y0366560D03*
X0597679Y0374040D03*
X0606734Y0374040D03*
X0606734Y0370300D03*
X0606734Y0366560D03*
D33*
X0636176Y0376200D03*
X0657436Y0376200D03*
X0661736Y0176000D03*
X0640476Y0176000D03*
D34*
X0282831Y0312805D03*
X0282831Y0314775D03*
X0282831Y0316745D03*
X0282831Y0318715D03*
X0282831Y0320685D03*
X0282831Y0322655D03*
X0282831Y0324625D03*
X0282831Y0326595D03*
X0264581Y0326595D03*
X0264581Y0324625D03*
X0264581Y0322655D03*
X0264581Y0320685D03*
X0264581Y0318715D03*
X0264581Y0316745D03*
X0264581Y0314775D03*
X0264581Y0312805D03*
X0264581Y0389405D03*
X0264581Y0391375D03*
X0264581Y0393345D03*
X0264581Y0395315D03*
X0264581Y0397285D03*
X0264581Y0399255D03*
X0264581Y0401225D03*
X0264581Y0403195D03*
X0282831Y0403195D03*
X0282831Y0401225D03*
X0282831Y0399255D03*
X0282831Y0397285D03*
X0282831Y0395315D03*
X0282831Y0393345D03*
X0282831Y0391375D03*
X0282831Y0389405D03*
D35*
X0190645Y0387125D03*
X0188086Y0387125D03*
X0185527Y0387125D03*
X0182968Y0387125D03*
X0182968Y0405475D03*
X0185527Y0405475D03*
X0188086Y0405475D03*
X0190645Y0405475D03*
X0190645Y0329175D03*
X0188086Y0329175D03*
X0185527Y0329175D03*
X0182968Y0329175D03*
X0182968Y0310825D03*
X0185527Y0310825D03*
X0188086Y0310825D03*
X0190645Y0310825D03*
D36*
X0261394Y0295500D03*
X0272418Y0295500D03*
X0271218Y0372100D03*
X0260194Y0372100D03*
D37*
X0293966Y0337300D03*
X0301446Y0337300D03*
X0301046Y0414500D03*
X0293566Y0414500D03*
D38*
X0293506Y0420100D03*
X0288306Y0425100D03*
X0281706Y0412700D03*
X0273706Y0408900D03*
X0276106Y0402500D03*
X0270906Y0399500D03*
X0270906Y0393500D03*
X0276106Y0391500D03*
X0288306Y0392900D03*
X0300106Y0384100D03*
X0316706Y0372700D03*
X0331306Y0361100D03*
X0349306Y0359700D03*
X0356106Y0359700D03*
X0350706Y0372300D03*
X0329906Y0385500D03*
X0356506Y0391700D03*
X0357106Y0403700D03*
X0374306Y0401900D03*
X0383506Y0390900D03*
X0384906Y0383100D03*
X0384906Y0377900D03*
X0384906Y0373700D03*
X0384906Y0368900D03*
X0330906Y0334700D03*
X0316106Y0347500D03*
X0305506Y0350700D03*
X0293906Y0343100D03*
X0288306Y0350300D03*
X0274706Y0348500D03*
X0269906Y0341900D03*
X0274106Y0331300D03*
X0275106Y0325700D03*
X0271106Y0325700D03*
X0264706Y0330500D03*
X0252306Y0330300D03*
X0247506Y0336100D03*
X0241306Y0341500D03*
X0227506Y0341100D03*
X0222106Y0336700D03*
X0216306Y0332500D03*
X0227306Y0327100D03*
X0227106Y0319900D03*
X0227106Y0310500D03*
X0220106Y0308200D03*
X0222106Y0304100D03*
X0228106Y0299700D03*
X0226106Y0288100D03*
X0212306Y0289700D03*
X0212306Y0285500D03*
X0207306Y0285700D03*
X0207306Y0289900D03*
X0200106Y0291900D03*
X0200906Y0298100D03*
X0200506Y0303900D03*
X0202306Y0321500D03*
X0196906Y0321500D03*
X0188106Y0322500D03*
X0171706Y0336300D03*
X0156106Y0338900D03*
X0132506Y0357500D03*
X0157106Y0358700D03*
X0167706Y0371500D03*
X0167706Y0377500D03*
X0153706Y0383500D03*
X0146506Y0383300D03*
X0171706Y0413100D03*
X0188106Y0398100D03*
X0197506Y0396300D03*
X0202506Y0396300D03*
X0217706Y0409900D03*
X0225706Y0416700D03*
X0234506Y0420500D03*
X0242306Y0416900D03*
X0250706Y0408500D03*
X0241906Y0405100D03*
X0241906Y0399100D03*
X0241906Y0393100D03*
X0252306Y0385900D03*
X0245106Y0378700D03*
X0234306Y0374700D03*
X0224506Y0378500D03*
X0218506Y0384500D03*
X0228106Y0393100D03*
X0228106Y0399100D03*
X0227906Y0405100D03*
X0252106Y0423900D03*
X0257306Y0423900D03*
X0269506Y0418100D03*
X0264506Y0407100D03*
X0305106Y0406500D03*
X0305906Y0414300D03*
X0305306Y0425300D03*
X0329506Y0424300D03*
X0357506Y0424300D03*
X0353506Y0458100D03*
X0341506Y0458100D03*
X0329506Y0458100D03*
X0317506Y0458100D03*
X0305506Y0458100D03*
X0293506Y0458100D03*
X0281506Y0458100D03*
X0269506Y0458100D03*
X0257506Y0458100D03*
X0245506Y0458100D03*
X0233506Y0458100D03*
X0221506Y0458100D03*
X0209506Y0458100D03*
X0197506Y0458100D03*
X0185506Y0458100D03*
X0173506Y0458100D03*
X0161506Y0458100D03*
X0149506Y0458100D03*
X0137506Y0458100D03*
X0125506Y0458100D03*
X0137506Y0439900D03*
X0173706Y0440100D03*
X0209306Y0439900D03*
X0248306Y0439500D03*
X0279106Y0376700D03*
X0279106Y0369300D03*
X0278906Y0363100D03*
X0271306Y0363100D03*
X0260106Y0361500D03*
X0254106Y0361700D03*
X0254106Y0348500D03*
X0257906Y0348500D03*
X0283106Y0335700D03*
X0275106Y0319700D03*
X0271306Y0313700D03*
X0274906Y0308300D03*
X0288306Y0317500D03*
X0295306Y0307300D03*
X0310506Y0289500D03*
X0296306Y0271700D03*
X0310106Y0256700D03*
X0326306Y0271700D03*
X0350106Y0284100D03*
X0356706Y0284100D03*
X0350106Y0295700D03*
X0325306Y0307300D03*
X0305706Y0329500D03*
X0307506Y0337300D03*
X0300306Y0362900D03*
X0242506Y0326700D03*
X0242706Y0320300D03*
X0242906Y0311100D03*
X0248906Y0305300D03*
X0253906Y0310900D03*
X0242506Y0300100D03*
X0245906Y0291500D03*
X0245706Y0285900D03*
X0262306Y0279100D03*
X0272506Y0286100D03*
X0272506Y0271100D03*
X0261906Y0269100D03*
X0260906Y0250500D03*
X0269506Y0249900D03*
X0274906Y0249900D03*
X0280106Y0249900D03*
X0285506Y0249900D03*
X0239106Y0266700D03*
X0232506Y0266500D03*
X0226306Y0266500D03*
X0224506Y0247400D03*
X0215406Y0236500D03*
X0206706Y0247100D03*
X0185106Y0246200D03*
X0173506Y0246100D03*
X0165106Y0262500D03*
X0147106Y0279700D03*
X0165906Y0293100D03*
X0168106Y0299700D03*
X0155506Y0307500D03*
X0149106Y0307700D03*
X0188106Y0287300D03*
X0188106Y0283300D03*
X0129306Y0264700D03*
X0094506Y0261100D03*
X0094506Y0273100D03*
X0094506Y0285100D03*
X0094506Y0297100D03*
X0094506Y0309100D03*
X0094506Y0321100D03*
X0094506Y0333100D03*
X0094506Y0345100D03*
X0094506Y0357100D03*
X0094506Y0369100D03*
X0094506Y0381100D03*
X0094506Y0393100D03*
X0094506Y0405100D03*
X0094506Y0417100D03*
X0094706Y0427900D03*
X0187706Y0359500D03*
X0187706Y0354300D03*
X0199306Y0345300D03*
X0199906Y0365300D03*
X0199906Y0371700D03*
X0199506Y0378700D03*
X0356306Y0315300D03*
X0379706Y0329300D03*
X0384306Y0313900D03*
X0385106Y0306100D03*
X0385106Y0301100D03*
X0385106Y0297100D03*
X0384906Y0291700D03*
X0389906Y0268900D03*
X0369306Y0259300D03*
X0363506Y0259300D03*
X0357506Y0259300D03*
X0351506Y0259300D03*
X0395906Y0234700D03*
X0412306Y0249300D03*
X0431506Y0235500D03*
X0452506Y0248700D03*
X0467706Y0235300D03*
X0482506Y0248700D03*
X0496106Y0235900D03*
X0512506Y0248700D03*
X0526106Y0235900D03*
X0542506Y0248700D03*
X0556106Y0235900D03*
X0541906Y0218100D03*
X0556306Y0205300D03*
X0571906Y0218100D03*
X0586306Y0205300D03*
X0572106Y0187500D03*
X0586906Y0172500D03*
X0572706Y0154700D03*
X0587506Y0138100D03*
X0573306Y0120300D03*
X0557506Y0138100D03*
X0542706Y0154700D03*
X0527506Y0138100D03*
X0512706Y0154700D03*
X0497506Y0138100D03*
X0482706Y0154700D03*
X0496906Y0172500D03*
X0482106Y0187500D03*
X0496306Y0205300D03*
X0481906Y0218100D03*
X0511906Y0218100D03*
X0526306Y0205300D03*
X0512106Y0187500D03*
X0526906Y0172500D03*
X0542106Y0187500D03*
X0556906Y0172500D03*
X0543306Y0120300D03*
X0513306Y0120300D03*
X0483306Y0120300D03*
X0455306Y0119500D03*
X0425306Y0119500D03*
X0395306Y0119500D03*
X0365306Y0119500D03*
X0346006Y0114500D03*
X0331006Y0114500D03*
X0328506Y0107600D03*
X0323506Y0107600D03*
X0317906Y0107600D03*
X0312506Y0107600D03*
X0306906Y0107600D03*
X0315006Y0120800D03*
X0315006Y0126300D03*
X0315006Y0130900D03*
X0315006Y0135300D03*
X0307606Y0135500D03*
X0300006Y0147100D03*
X0324506Y0152100D03*
X0332006Y0144000D03*
X0300706Y0175300D03*
X0297806Y0178900D03*
X0294906Y0175400D03*
X0289522Y0177800D03*
X0286106Y0181600D03*
X0281906Y0181700D03*
X0281906Y0186200D03*
X0286106Y0186000D03*
X0286206Y0190600D03*
X0282006Y0190600D03*
X0289522Y0196927D03*
X0294806Y0196100D03*
X0298106Y0193000D03*
X0301406Y0196100D03*
X0316306Y0194700D03*
X0327306Y0189800D03*
X0331106Y0189800D03*
X0340706Y0186600D03*
X0354906Y0186500D03*
X0367106Y0197700D03*
X0371306Y0197700D03*
X0371106Y0202100D03*
X0367106Y0202100D03*
X0376706Y0208200D03*
X0395906Y0214900D03*
X0407506Y0193900D03*
X0428706Y0190900D03*
X0427706Y0180700D03*
X0436106Y0176400D03*
X0435906Y0171500D03*
X0435906Y0166300D03*
X0435906Y0161300D03*
X0435706Y0156300D03*
X0354706Y0207100D03*
X0346306Y0207300D03*
X0338506Y0207200D03*
X0324306Y0219400D03*
X0321306Y0182700D03*
X0266706Y0174600D03*
X0252106Y0181700D03*
X0251206Y0190100D03*
X0266306Y0197800D03*
X0239106Y0203900D03*
X0233306Y0215900D03*
X0223306Y0206400D03*
X0214706Y0214900D03*
X0212506Y0193000D03*
X0199706Y0191500D03*
X0185206Y0195800D03*
X0200006Y0174600D03*
X0210506Y0170100D03*
X0219106Y0158500D03*
X0218306Y0148000D03*
X0206506Y0143100D03*
X0215706Y0132500D03*
X0208306Y0111700D03*
X0226606Y0112700D03*
X0240906Y0113600D03*
X0260506Y0096500D03*
X0265706Y0096500D03*
X0270706Y0094100D03*
X0275506Y0094100D03*
X0265706Y0090900D03*
X0260506Y0090900D03*
X0257506Y0082100D03*
X0245506Y0082100D03*
X0233506Y0082100D03*
X0221506Y0082100D03*
X0209506Y0082100D03*
X0197506Y0082100D03*
X0185506Y0082100D03*
X0173506Y0082100D03*
X0161506Y0082100D03*
X0149506Y0082100D03*
X0137506Y0082100D03*
X0125506Y0082100D03*
X0139306Y0110300D03*
X0150006Y0123600D03*
X0185506Y0117100D03*
X0150506Y0152100D03*
X0172106Y0170900D03*
X0184006Y0171100D03*
X0153506Y0185900D03*
X0129506Y0187100D03*
X0094506Y0189100D03*
X0094506Y0177100D03*
X0094506Y0165100D03*
X0094506Y0153100D03*
X0094506Y0141100D03*
X0094506Y0129100D03*
X0094506Y0117100D03*
X0094506Y0201100D03*
X0094506Y0213100D03*
X0094506Y0225100D03*
X0094506Y0237100D03*
X0094506Y0249100D03*
X0147906Y0231900D03*
X0147906Y0217900D03*
X0229806Y0186500D03*
X0229806Y0179800D03*
X0227406Y0176000D03*
X0232406Y0176000D03*
X0234406Y0179800D03*
X0240106Y0157500D03*
X0265006Y0158600D03*
X0260806Y0134700D03*
X0266006Y0132300D03*
X0269506Y0082100D03*
X0281506Y0082100D03*
X0293506Y0082100D03*
X0305506Y0082100D03*
X0317506Y0082100D03*
X0329506Y0082100D03*
X0341506Y0082100D03*
X0353506Y0082100D03*
X0365506Y0082100D03*
X0377506Y0082100D03*
X0389506Y0082100D03*
X0401506Y0082100D03*
X0413506Y0082100D03*
X0425506Y0082100D03*
X0437506Y0082100D03*
X0449506Y0082100D03*
X0461506Y0082100D03*
X0473506Y0082100D03*
X0485506Y0082100D03*
X0497506Y0082100D03*
X0509506Y0082100D03*
X0521506Y0082100D03*
X0533506Y0082100D03*
X0545506Y0082100D03*
X0557506Y0082100D03*
X0569506Y0082100D03*
X0581506Y0082100D03*
X0593506Y0082100D03*
X0605506Y0082100D03*
X0617506Y0082100D03*
X0629506Y0082100D03*
X0641506Y0082100D03*
X0653506Y0082100D03*
X0662506Y0088100D03*
X0662506Y0100100D03*
X0662506Y0112100D03*
X0662506Y0124100D03*
X0643906Y0118300D03*
X0662506Y0136100D03*
X0662506Y0148100D03*
X0662506Y0160100D03*
X0623306Y0138300D03*
X0608306Y0119700D03*
X0662506Y0196100D03*
X0662506Y0208100D03*
X0662506Y0220100D03*
X0662506Y0232100D03*
X0662506Y0244100D03*
X0662506Y0256100D03*
X0662506Y0268100D03*
X0662506Y0280100D03*
X0662506Y0292100D03*
X0662506Y0304100D03*
X0662506Y0316100D03*
X0662506Y0328100D03*
X0662506Y0340100D03*
X0662506Y0352100D03*
X0662506Y0364100D03*
X0662506Y0388100D03*
X0662506Y0400100D03*
X0662506Y0412100D03*
X0662506Y0424100D03*
X0662506Y0436100D03*
X0662506Y0447500D03*
X0662906Y0457700D03*
X0653506Y0458100D03*
X0641506Y0458100D03*
X0629506Y0458100D03*
X0617506Y0458100D03*
X0605506Y0458100D03*
X0593506Y0458100D03*
X0581506Y0458100D03*
X0569506Y0458100D03*
X0557506Y0458100D03*
X0545506Y0458100D03*
X0533506Y0458100D03*
X0521506Y0458100D03*
X0509506Y0458100D03*
X0497506Y0458100D03*
X0485506Y0458100D03*
X0473506Y0458100D03*
X0461506Y0458100D03*
X0449506Y0458100D03*
X0437506Y0458100D03*
X0425506Y0458100D03*
X0413506Y0458100D03*
X0401506Y0458100D03*
X0389506Y0458100D03*
X0377506Y0458100D03*
X0365506Y0458100D03*
X0453106Y0439700D03*
X0466706Y0423500D03*
X0483106Y0439700D03*
X0496706Y0423500D03*
X0513106Y0439700D03*
X0526706Y0423500D03*
X0543106Y0439700D03*
X0556706Y0423500D03*
X0569706Y0440100D03*
X0583906Y0415700D03*
X0583906Y0410300D03*
X0583906Y0405500D03*
X0588906Y0405500D03*
X0588906Y0410500D03*
X0569906Y0405900D03*
X0557706Y0387900D03*
X0543506Y0370100D03*
X0557706Y0357900D03*
X0543506Y0340100D03*
X0557706Y0327900D03*
X0543506Y0310100D03*
X0557706Y0297900D03*
X0543506Y0280100D03*
X0556706Y0266500D03*
X0581106Y0266100D03*
X0581106Y0270300D03*
X0581106Y0274500D03*
X0582506Y0283300D03*
X0585106Y0287700D03*
X0582506Y0292100D03*
X0589506Y0291900D03*
X0592506Y0287700D03*
X0589506Y0283300D03*
X0609306Y0272100D03*
X0624506Y0269500D03*
X0617006Y0254000D03*
X0598806Y0244200D03*
X0586106Y0235900D03*
X0526706Y0266500D03*
X0513506Y0280100D03*
X0496706Y0266500D03*
X0483506Y0280100D03*
X0466706Y0266500D03*
X0453506Y0280100D03*
X0467706Y0297900D03*
X0453506Y0310100D03*
X0467706Y0327900D03*
X0453506Y0340100D03*
X0467706Y0357900D03*
X0453506Y0370100D03*
X0467706Y0387900D03*
X0482506Y0405700D03*
X0497706Y0387900D03*
X0483506Y0370100D03*
X0497706Y0357900D03*
X0513506Y0370100D03*
X0527706Y0357900D03*
X0513506Y0340100D03*
X0527706Y0327900D03*
X0513506Y0310100D03*
X0527706Y0297900D03*
X0497706Y0297900D03*
X0483506Y0310100D03*
X0497706Y0327900D03*
X0483506Y0340100D03*
X0527706Y0387900D03*
X0542506Y0405700D03*
X0512506Y0405700D03*
X0452506Y0405700D03*
X0589306Y0357500D03*
X0589506Y0352700D03*
X0589506Y0348100D03*
X0589506Y0343300D03*
X0594506Y0343300D03*
X0594506Y0347900D03*
X0615506Y0357100D03*
X0612606Y0370300D03*
X0615306Y0406100D03*
X0615906Y0420100D03*
X0616706Y0428100D03*
X0615506Y0300500D03*
X0616106Y0288100D03*
D39*
X0614606Y0308500D03*
X0618806Y0384100D03*
X0324706Y0235600D03*
X0306806Y0228700D03*
X0300206Y0230100D03*
X0265006Y0243700D03*
X0147006Y0206800D03*
X0157006Y0142600D03*
D40*
X0402106Y0156400D03*
X0402006Y0177000D03*
D41*
X0308306Y0145300D03*
X0264906Y0218100D03*
X0613406Y0184700D03*
X0621006Y0184900D03*
X0621206Y0177500D03*
X0620806Y0170100D03*
X0613006Y0170300D03*
X0613206Y0177700D03*
X0612806Y0162700D03*
X0621006Y0162500D03*
X0641506Y0249100D03*
X0641506Y0271100D03*
X0641506Y0293100D03*
X0641506Y0315100D03*
X0641506Y0333500D03*
X0641506Y0359100D03*
X0641506Y0389300D03*
X0641506Y0403100D03*
X0641506Y0425100D03*
D42*
X0581506Y0425900D03*
X0577706Y0351900D03*
X0641906Y0348300D03*
X0572906Y0288900D03*
X0578706Y0243900D03*
X0602706Y0173300D03*
X0308106Y0128300D03*
X0220706Y0362900D03*
M02*
