%
M48
M72
T01C0.01200
T02C0.01969
T03C0.02362
T04C0.02756
T05C0.03000
T06C0.03200
T07C0.03543
T08C0.03600
T09C0.07874
T10C0.11000
%
T01
X125506Y82100
X137506Y82100
X149506Y82100
X161506Y82100
X173506Y82100
X185506Y82100
X197506Y82100
X209506Y82100
X221506Y82100
X233506Y82100
X245506Y82100
X257506Y82100
X260506Y90900
X265706Y90900
X265706Y96500
X260506Y96500
X270706Y94100
X275506Y94100
X269506Y82100
X281506Y82100
X293506Y82100
X305506Y82100
X317506Y82100
X329506Y82100
X341506Y82100
X353506Y82100
X365506Y82100
X377506Y82100
X389506Y82100
X401506Y82100
X413506Y82100
X425506Y82100
X437506Y82100
X449506Y82100
X461506Y82100
X473506Y82100
X485506Y82100
X497506Y82100
X509506Y82100
X521506Y82100
X533506Y82100
X545506Y82100
X557506Y82100
X569506Y82100
X581506Y82100
X593506Y82100
X605506Y82100
X617506Y82100
X629506Y82100
X641506Y82100
X653506Y82100
X662506Y88100
X662506Y100100
X662506Y112100
X662506Y124100
X643906Y118300
X662506Y136100
X662506Y148100
X662506Y160100
X623306Y138300
X608306Y119700
X587506Y138100
X572706Y154700
X557506Y138100
X542706Y154700
X527506Y138100
X512706Y154700
X497506Y138100
X482706Y154700
X496906Y172500
X482106Y187500
X496306Y205300
X481906Y218100
X467706Y235300
X482506Y248700
X496106Y235900
X512506Y248700
X526106Y235900
X542506Y248700
X556106Y235900
X541906Y218100
X556306Y205300
X571906Y218100
X586306Y205300
X572106Y187500
X586906Y172500
X556906Y172500
X542106Y187500
X526906Y172500
X512106Y187500
X526306Y205300
X511906Y218100
X452506Y248700
X431506Y235500
X412306Y249300
X395906Y234700
X395906Y214900
X376706Y208200
X371106Y202100
X367106Y202100
X367106Y197700
X371306Y197700
X354706Y207100
X346306Y207300
X338506Y207200
X324306Y219400
X301406Y196100
X298106Y193000
X294806Y196100
X289522Y196927
X286206Y190600
X282006Y190600
X281906Y186200
X286106Y186000
X286106Y181600
X281906Y181700
X289522Y177800
X294906Y175400
X297806Y178900
X300706Y175300
X321306Y182700
X327306Y189800
X331106Y189800
X340706Y186600
X354906Y186500
X316306Y194700
X324506Y152100
X332006Y144000
X315006Y135300
X315006Y130900
X315006Y126300
X315006Y120800
X307606Y135500
X300006Y147100
X265006Y158600
X266706Y174600
X252106Y181700
X251206Y190100
X266306Y197800
X239106Y203900
X233306Y215900
X223306Y206400
X214706Y214900
X215406Y236500
X206706Y247100
X224506Y247400
X226306Y266500
X232506Y266500
X239106Y266700
X245706Y285900
X245906Y291500
X242506Y300100
X248906Y305300
X253906Y310900
X242906Y311100
X242706Y320300
X242506Y326700
X252306Y330300
X247506Y336100
X241306Y341500
X227506Y341100
X222106Y336700
X216306Y332500
X227306Y327100
X227106Y319900
X227106Y310500
X220106Y308200
X222106Y304100
X228106Y299700
X226106Y288100
X212306Y289700
X212306Y285500
X207306Y285700
X207306Y289900
X200106Y291900
X200906Y298100
X200506Y303900
X202306Y321500
X196906Y321500
X188106Y322500
X171706Y336300
X156106Y338900
X132506Y357500
X157106Y358700
X167706Y371500
X167706Y377500
X153706Y383500
X146506Y383300
X171706Y413100
X188106Y398100
X197506Y396300
X202506Y396300
X217706Y409900
X225706Y416700
X234506Y420500
X242306Y416900
X250706Y408500
X241906Y405100
X241906Y399100
X241906Y393100
X252306Y385900
X245106Y378700
X234306Y374700
X224506Y378500
X218506Y384500
X228106Y393100
X228106Y399100
X227906Y405100
X252106Y423900
X257306Y423900
X269506Y418100
X281706Y412700
X273706Y408900
X276106Y402500
X270906Y399500
X270906Y393500
X276106Y391500
X288306Y392900
X300106Y384100
X316706Y372700
X331306Y361100
X349306Y359700
X356106Y359700
X350706Y372300
X329906Y385500
X356506Y391700
X357106Y403700
X374306Y401900
X383506Y390900
X384906Y383100
X384906Y377900
X384906Y373700
X384906Y368900
X330906Y334700
X316106Y347500
X305506Y350700
X293906Y343100
X288306Y350300
X274706Y348500
X269906Y341900
X274106Y331300
X275106Y325700
X271106Y325700
X264706Y330500
X275106Y319700
X271306Y313700
X274906Y308300
X288306Y317500
X295306Y307300
X310506Y289500
X296306Y271700
X310106Y256700
X326306Y271700
X350106Y284100
X356706Y284100
X350106Y295700
X325306Y307300
X305706Y329500
X307506Y337300
X283106Y335700
X257906Y348500
X254106Y348500
X254106Y361700
X260106Y361500
X271306Y363100
X278906Y363100
X279106Y369300
X279106Y376700
X300306Y362900
X305106Y406500
X305906Y414300
X305306Y425300
X293506Y420100
X288306Y425100
X264506Y407100
X248306Y439500
X245506Y458100
X233506Y458100
X221506Y458100
X209506Y458100
X197506Y458100
X185506Y458100
X173506Y458100
X161506Y458100
X149506Y458100
X137506Y458100
X125506Y458100
X137506Y439900
X173706Y440100
X209306Y439900
X257506Y458100
X269506Y458100
X281506Y458100
X293506Y458100
X305506Y458100
X317506Y458100
X329506Y458100
X341506Y458100
X353506Y458100
X365506Y458100
X377506Y458100
X389506Y458100
X401506Y458100
X413506Y458100
X425506Y458100
X437506Y458100
X449506Y458100
X461506Y458100
X473506Y458100
X485506Y458100
X497506Y458100
X509506Y458100
X521506Y458100
X533506Y458100
X545506Y458100
X557506Y458100
X569506Y458100
X581506Y458100
X593506Y458100
X605506Y458100
X617506Y458100
X629506Y458100
X641506Y458100
X653506Y458100
X662906Y457700
X662506Y447500
X662506Y436100
X662506Y424100
X662506Y412100
X662506Y400100
X662506Y388100
X662506Y364100
X662506Y352100
X662506Y340100
X662506Y328100
X662506Y316100
X662506Y304100
X662506Y292100
X662506Y280100
X662506Y268100
X662506Y256100
X662506Y244100
X662506Y232100
X662506Y220100
X662506Y208100
X662506Y196100
X598806Y244200
X586106Y235900
X617006Y254000
X624506Y269500
X609306Y272100
X589506Y283300
X592506Y287700
X589506Y291900
X585106Y287700
X582506Y292100
X582506Y283300
X581106Y274500
X581106Y270300
X581106Y266100
X556706Y266500
X543506Y280100
X526706Y266500
X513506Y280100
X496706Y266500
X483506Y280100
X466706Y266500
X453506Y280100
X467706Y297900
X453506Y310100
X467706Y327900
X453506Y340100
X467706Y357900
X453506Y370100
X467706Y387900
X482506Y405700
X497706Y387900
X483506Y370100
X497706Y357900
X513506Y370100
X527706Y357900
X543506Y370100
X557706Y357900
X543506Y340100
X557706Y327900
X543506Y310100
X557706Y297900
X527706Y297900
X513506Y310100
X497706Y297900
X483506Y310100
X497706Y327900
X483506Y340100
X513506Y340100
X527706Y327900
X589506Y343300
X589506Y348100
X589506Y352700
X589306Y357500
X594506Y347900
X594506Y343300
X615506Y357100
X612606Y370300
X615306Y406100
X615906Y420100
X616706Y428100
X588906Y410500
X588906Y405500
X583906Y405500
X583906Y410300
X583906Y415700
X569906Y405900
X557706Y387900
X542506Y405700
X527706Y387900
X512506Y405700
X526706Y423500
X513106Y439700
X496706Y423500
X483106Y439700
X466706Y423500
X453106Y439700
X452506Y405700
X543106Y439700
X556706Y423500
X569706Y440100
X384306Y313900
X385106Y306100
X385106Y301100
X385106Y297100
X384906Y291700
X389906Y268900
X369306Y259300
X363506Y259300
X357506Y259300
X351506Y259300
X285506Y249900
X280106Y249900
X274906Y249900
X269506Y249900
X260906Y250500
X261906Y269100
X272506Y271100
X262306Y279100
X272506Y286100
X188106Y287300
X188106Y283300
X165906Y293100
X168106Y299700
X155506Y307500
X149106Y307700
X147106Y279700
X129306Y264700
X94506Y261100
X94506Y273100
X94506Y285100
X94506Y297100
X94506Y309100
X94506Y321100
X94506Y333100
X94506Y345100
X94506Y357100
X94506Y369100
X94506Y381100
X94506Y393100
X94506Y405100
X94506Y417100
X94706Y427900
X187706Y359500
X187706Y354300
X199306Y345300
X199906Y365300
X199906Y371700
X199506Y378700
X329506Y424300
X357506Y424300
X379706Y329300
X356306Y315300
X407506Y193900
X402006Y177000
X402106Y156400
X435706Y156300
X435906Y161300
X435906Y166300
X435906Y171500
X436106Y176400
X427706Y180700
X428706Y190900
X425306Y119500
X395306Y119500
X365306Y119500
X346006Y114500
X331006Y114500
X328506Y107600
X323506Y107600
X317906Y107600
X312506Y107600
X306906Y107600
X266006Y132300
X260806Y134700
X240906Y113600
X226606Y112700
X208306Y111700
X185506Y117100
X215706Y132500
X206506Y143100
X218306Y148000
X219106Y158500
X210506Y170100
X200006Y174600
X184006Y171100
X172106Y170900
X153506Y185900
X129506Y187100
X94506Y189100
X94506Y177100
X94506Y165100
X94506Y153100
X94506Y141100
X94506Y129100
X94506Y117100
X139306Y110300
X150006Y123600
X150506Y152100
X199706Y191500
X212506Y193000
X229806Y186500
X229806Y179800
X227406Y176000
X232406Y176000
X234406Y179800
X240106Y157500
X185206Y195800
X147906Y217900
X147906Y231900
X173506Y246100
X185106Y246200
X165106Y262500
X94506Y249100
X94506Y237100
X94506Y225100
X94506Y213100
X94506Y201100
X455306Y119500
X483306Y120300
X513306Y120300
X543306Y120300
X573306Y120300
X616106Y288100
X615506Y300500
T02
X614606Y308500
X618806Y384100
X324706Y235600
X306806Y228700
X300206Y230100
X265006Y243700
X147006Y206800
X157006Y142600
T03
X264906Y218100
X308306Y145300
X612806Y162700
X613006Y170300
X613206Y177700
X621206Y177500
X620806Y170100
X621006Y162500
X621006Y184900
X613406Y184700
X641506Y249100
X641506Y271100
X641506Y293100
X641506Y315100
X641506Y333500
X641506Y359100
X641506Y389300
X641506Y403100
X641506Y425100
T04
X323306Y399300
X317906Y393700
X312106Y389300
X323306Y322700
X318306Y317900
X312506Y312700
X377906Y177300
X374306Y169400
X378106Y163700
X374106Y157100
T05
X451506Y158100
X451506Y165900
X459406Y165900
X459406Y158100
X459406Y173800
X451506Y173800
X451506Y181700
X451506Y189600
X459406Y189600
X459406Y181700
X459406Y197400
X451506Y197400
X451506Y205300
X459406Y205300
X405006Y291300
X397106Y291300
X397106Y299100
X397106Y307000
X405006Y307000
X405006Y299100
X405006Y314900
X397106Y314900
X397106Y322800
X397106Y330600
X405006Y330600
X405006Y322800
X405006Y338500
X397106Y338500
X397106Y367900
X405006Y367900
X405006Y375700
X397106Y375700
X397106Y383600
X405006Y383600
X405006Y391500
X397106Y391500
X397106Y399400
X405006Y399400
X405006Y407200
X397106Y407200
X397106Y415100
X405006Y415100
T06
X369006Y220700
X354006Y220700
X339006Y220700
T07
X308106Y128300
X134506Y138100
X134506Y148100
X134506Y217100
X134506Y227100
X135506Y310100
X135506Y320100
X220706Y362900
X133506Y386100
X133506Y396100
X572906Y288900
X578706Y243900
X602706Y173300
X641906Y348300
X577706Y351900
X581506Y425900
T08
X674506Y426100
X684506Y426100
X684506Y416100
X674506Y416100
X674506Y406100
X674506Y396100
X684506Y396100
X684506Y406100
X694506Y406100
X694506Y396100
X694506Y386100
X684506Y386100
X674506Y386100
X674506Y376100
X684506Y376100
X684506Y366100
X674506Y366100
X674506Y356100
X684506Y356100
X684506Y346100
X674506Y346100
X674506Y336100
X674506Y326100
X684506Y326100
X684506Y336100
X694506Y336100
X694506Y326100
X694506Y316100
X684506Y316100
X674506Y316100
X674506Y306100
X684506Y306100
X684506Y296100
X674506Y296100
X674506Y286100
X684506Y286100
X684506Y276100
X674506Y276100
X674506Y266100
X684506Y266100
X684506Y256100
X674506Y256100
X674506Y246100
X684506Y246100
X684506Y236100
X674506Y236100
X674506Y226100
X684506Y226100
X684506Y216100
X674506Y216100
X674506Y206100
X684506Y206100
X684506Y196100
X674506Y196100
X674506Y186100
X684506Y186100
X684506Y176100
X674506Y176100
X674506Y166100
X684506Y166100
X684506Y156100
X674506Y156100
X674506Y146100
X674506Y136100
X684506Y136100
X684506Y146100
X694506Y146100
X694506Y136100
X694506Y126100
X684506Y126100
X674506Y126100
X674506Y116100
X684506Y116100
X694506Y116100
X694506Y156100
X694506Y166100
X694506Y176100
X694506Y186100
X694506Y196100
X694506Y206100
X694506Y216100
X694506Y226100
X694506Y236100
X694506Y246100
X694506Y256100
X694506Y266100
X694506Y276100
X694506Y286100
X694506Y296100
X694506Y306100
X694506Y346100
X694506Y356100
X694506Y366100
X694506Y376100
X694506Y416100
X694506Y426100
T09
X113506Y416100
X113506Y376100
X115506Y340100
X115506Y300100
X114506Y247100
X114506Y207100
X114506Y168100
X114506Y128100
T10
X99506Y96100
X99506Y446100
X704506Y446100
X704506Y96100
M30
