G75*
%MOIN*%
%OFA0B0*%
%FSLAX25Y25*%
%IPPOS*%
%LPD*%
%AMOC8*
5,1,8,0,0,1.08239X$1,22.5*
%
%ADD10R,0.01063X0.05337*%
%ADD11R,0.05337X0.01063*%
%ADD12R,0.05750X0.02100*%
%ADD13R,0.04331X0.03937*%
%ADD14R,0.01972X0.04769*%
%ADD15R,0.01000X0.03500*%
%ADD16R,0.09800X0.06900*%
%ADD17R,0.06550X0.02100*%
%ADD18R,0.03937X0.04331*%
%ADD19R,0.06299X0.07087*%
%ADD20R,0.07087X0.06299*%
%ADD21R,0.05969X0.02172*%
%ADD22R,0.06150X0.01700*%
%ADD23R,0.03543X0.01378*%
%ADD24R,0.04769X0.01972*%
%ADD25R,0.07480X0.11811*%
%ADD26R,0.06050X0.01100*%
%ADD27R,0.01700X0.06150*%
%ADD28R,0.06299X0.10630*%
%ADD29R,0.05118X0.05906*%
D10*
X0279680Y0169652D03*
X0281648Y0169652D03*
X0283617Y0169652D03*
X0285585Y0169652D03*
X0287554Y0169652D03*
X0289522Y0169652D03*
X0291491Y0169652D03*
X0293459Y0169652D03*
X0295428Y0169652D03*
X0297396Y0169652D03*
X0299365Y0169652D03*
X0301333Y0169652D03*
X0301333Y0202548D03*
X0299365Y0202548D03*
X0297396Y0202548D03*
X0295428Y0202548D03*
X0293459Y0202548D03*
X0291491Y0202548D03*
X0289522Y0202548D03*
X0287554Y0202548D03*
X0285585Y0202548D03*
X0283617Y0202548D03*
X0281648Y0202548D03*
X0279680Y0202548D03*
D11*
X0274058Y0196927D03*
X0274058Y0194958D03*
X0274058Y0192990D03*
X0274058Y0191021D03*
X0274058Y0189053D03*
X0274058Y0187084D03*
X0274058Y0185116D03*
X0274058Y0183147D03*
X0274058Y0181179D03*
X0274058Y0179210D03*
X0274058Y0177242D03*
X0274058Y0175273D03*
X0306954Y0175273D03*
X0306954Y0177242D03*
X0306954Y0179210D03*
X0306954Y0181179D03*
X0306954Y0183147D03*
X0306954Y0185116D03*
X0306954Y0187084D03*
X0306954Y0189053D03*
X0306954Y0191021D03*
X0306954Y0192990D03*
X0306954Y0194958D03*
X0306954Y0196927D03*
D12*
X0294731Y0220100D03*
X0294731Y0225100D03*
X0294731Y0230100D03*
X0294731Y0235100D03*
X0273281Y0235100D03*
X0273281Y0230100D03*
X0273281Y0225100D03*
X0273281Y0220100D03*
X0273281Y0152100D03*
X0273281Y0147100D03*
X0273281Y0142100D03*
X0273281Y0137100D03*
X0294731Y0137100D03*
X0294731Y0142100D03*
X0294731Y0147100D03*
X0294731Y0152100D03*
D13*
X0287853Y0161100D03*
X0281160Y0161100D03*
X0332160Y0136000D03*
X0338853Y0136000D03*
X0315106Y0212754D03*
X0315106Y0219446D03*
X0308206Y0219646D03*
X0308206Y0212954D03*
X0286753Y0212000D03*
X0280060Y0212000D03*
X0228053Y0215900D03*
X0221360Y0215900D03*
X0204306Y0223254D03*
X0204306Y0229946D03*
X0212160Y0247600D03*
X0218853Y0247600D03*
X0249760Y0274500D03*
X0256453Y0274500D03*
X0261960Y0305100D03*
X0268653Y0305100D03*
X0293560Y0329500D03*
X0300253Y0329500D03*
X0263653Y0335500D03*
X0263653Y0341100D03*
X0256960Y0341100D03*
X0256960Y0335500D03*
X0194853Y0365300D03*
X0194853Y0371700D03*
X0188160Y0371700D03*
X0188160Y0365300D03*
X0180106Y0365446D03*
X0180106Y0358754D03*
X0180453Y0377500D03*
X0173760Y0377500D03*
X0173706Y0386554D03*
X0173706Y0393246D03*
X0176706Y0406354D03*
X0176706Y0413046D03*
X0146306Y0395846D03*
X0146306Y0389154D03*
X0188160Y0378700D03*
X0194853Y0378700D03*
X0176906Y0336246D03*
X0176906Y0329554D03*
X0173706Y0317446D03*
X0173706Y0310754D03*
X0188160Y0303900D03*
X0194853Y0303900D03*
X0194853Y0298100D03*
X0194853Y0292100D03*
X0188160Y0292100D03*
X0188160Y0298100D03*
X0179853Y0292900D03*
X0173160Y0292900D03*
X0179706Y0284646D03*
X0179706Y0277954D03*
X0149106Y0313554D03*
X0149106Y0320246D03*
X0261160Y0381700D03*
X0267853Y0381700D03*
X0293360Y0406500D03*
X0300053Y0406500D03*
X0263653Y0412700D03*
X0263653Y0418500D03*
X0256960Y0418500D03*
X0256960Y0412700D03*
X0349560Y0365300D03*
X0356253Y0365300D03*
X0356653Y0288900D03*
X0349960Y0288900D03*
X0223306Y0200346D03*
X0223306Y0193654D03*
X0223506Y0169446D03*
X0223506Y0162754D03*
X0218353Y0143100D03*
X0211660Y0143100D03*
X0203506Y0133446D03*
X0203506Y0126754D03*
X0213160Y0111700D03*
X0219853Y0111700D03*
X0185506Y0121754D03*
X0185506Y0128446D03*
X0185206Y0201854D03*
X0185206Y0208546D03*
X0591606Y0244354D03*
X0591606Y0251046D03*
X0591606Y0256654D03*
X0591606Y0263346D03*
X0603660Y0265500D03*
X0610353Y0265500D03*
D14*
X0338746Y0129028D03*
X0331266Y0129028D03*
X0331266Y0119972D03*
X0335006Y0119972D03*
X0338746Y0119972D03*
X0219246Y0127572D03*
X0215506Y0127572D03*
X0211766Y0127572D03*
X0211766Y0136628D03*
X0219246Y0136628D03*
X0219246Y0231572D03*
X0215506Y0231572D03*
X0211766Y0231572D03*
X0211766Y0240628D03*
X0219246Y0240628D03*
D15*
X0214459Y0187050D03*
X0212491Y0187050D03*
X0210522Y0187050D03*
X0208554Y0187050D03*
X0208554Y0175150D03*
X0210522Y0175150D03*
X0212491Y0175150D03*
X0214459Y0175150D03*
D16*
X0211506Y0181100D03*
D17*
X0185631Y0152600D03*
X0185631Y0147600D03*
X0185631Y0142600D03*
X0185631Y0137600D03*
X0163381Y0137600D03*
X0163381Y0142600D03*
X0163381Y0147600D03*
X0163381Y0152600D03*
X0163381Y0216800D03*
X0163381Y0221800D03*
X0163381Y0226800D03*
X0163381Y0231800D03*
X0185631Y0231800D03*
X0185631Y0226800D03*
X0185631Y0221800D03*
X0185631Y0216800D03*
D18*
X0176253Y0208300D03*
X0169560Y0208300D03*
X0200006Y0186446D03*
X0200006Y0179754D03*
X0223206Y0179854D03*
X0223206Y0186546D03*
X0257060Y0190200D03*
X0263753Y0190200D03*
X0263753Y0181800D03*
X0257060Y0181800D03*
X0246853Y0136100D03*
X0240160Y0136100D03*
X0233853Y0136100D03*
X0227160Y0136100D03*
X0175853Y0129100D03*
X0169160Y0129100D03*
X0316506Y0182754D03*
X0316506Y0189446D03*
X0366906Y0192646D03*
X0366906Y0185954D03*
X0407506Y0188846D03*
X0407506Y0182154D03*
X0433506Y0184154D03*
X0433506Y0190846D03*
X0591606Y0296654D03*
X0591606Y0303346D03*
X0589006Y0366554D03*
X0589006Y0373246D03*
X0589506Y0416654D03*
X0589506Y0423346D03*
X0379306Y0402046D03*
X0379306Y0395354D03*
X0299053Y0399300D03*
X0292360Y0399300D03*
X0281653Y0418300D03*
X0274960Y0418300D03*
X0293160Y0425300D03*
X0299853Y0425300D03*
X0205053Y0405900D03*
X0198360Y0405900D03*
X0189853Y0414700D03*
X0183160Y0414700D03*
X0167053Y0395900D03*
X0160360Y0395900D03*
X0153706Y0395846D03*
X0153706Y0389154D03*
X0173560Y0371500D03*
X0180253Y0371500D03*
X0198960Y0387100D03*
X0205653Y0387100D03*
X0190853Y0338500D03*
X0184160Y0338500D03*
X0199160Y0328900D03*
X0205853Y0328900D03*
X0205653Y0311100D03*
X0198960Y0311100D03*
X0180053Y0299700D03*
X0173360Y0299700D03*
X0155506Y0313354D03*
X0155506Y0320046D03*
X0161160Y0320100D03*
X0167853Y0320100D03*
X0229460Y0240600D03*
X0236153Y0240600D03*
X0243060Y0240600D03*
X0249753Y0240600D03*
X0293360Y0322700D03*
X0300053Y0322700D03*
X0283153Y0341000D03*
X0276460Y0341000D03*
X0293960Y0350700D03*
X0300653Y0350700D03*
X0379706Y0324246D03*
X0379706Y0317554D03*
D19*
X0164994Y0120100D03*
X0176018Y0120100D03*
X0211894Y0118800D03*
X0222918Y0118800D03*
X0184018Y0162600D03*
X0172994Y0162600D03*
X0193994Y0164100D03*
X0205018Y0164100D03*
X0202394Y0199500D03*
X0213418Y0199500D03*
X0212994Y0222800D03*
X0224018Y0222800D03*
X0243094Y0250800D03*
X0254118Y0250800D03*
X0306994Y0235600D03*
X0318018Y0235600D03*
X0317518Y0152100D03*
X0306494Y0152100D03*
X0334994Y0107500D03*
X0346018Y0107500D03*
X0176618Y0199000D03*
X0165594Y0199000D03*
X0174094Y0240000D03*
X0185118Y0240000D03*
X0590994Y0272100D03*
X0602018Y0272100D03*
X0598594Y0288000D03*
X0609618Y0288000D03*
X0608818Y0357100D03*
X0597794Y0357100D03*
X0597794Y0406400D03*
X0608818Y0406400D03*
D20*
X0623606Y0417388D03*
X0623606Y0428412D03*
X0618706Y0377112D03*
X0618706Y0366088D03*
X0622106Y0308512D03*
X0622106Y0297488D03*
X0624406Y0261412D03*
X0624406Y0250388D03*
X0331006Y0207112D03*
X0331006Y0196088D03*
X0265006Y0225788D03*
X0265006Y0236812D03*
X0232406Y0204112D03*
X0232406Y0193088D03*
X0232506Y0168612D03*
X0232506Y0157588D03*
X0265006Y0152112D03*
X0265006Y0141088D03*
X0233506Y0124612D03*
X0233506Y0113588D03*
X0150206Y0130688D03*
X0150206Y0141712D03*
X0154506Y0206988D03*
X0154506Y0218012D03*
X0213306Y0267788D03*
X0213306Y0278812D03*
X0234506Y0303588D03*
X0234506Y0314612D03*
X0234706Y0325788D03*
X0234706Y0336812D03*
X0217706Y0325812D03*
X0217706Y0314788D03*
X0234706Y0381188D03*
X0234706Y0392212D03*
X0234706Y0402588D03*
X0234706Y0413612D03*
X0217706Y0402412D03*
X0217706Y0391388D03*
X0323006Y0130012D03*
X0323006Y0118988D03*
D21*
X0600579Y0250260D03*
X0600579Y0257740D03*
X0610034Y0257740D03*
X0610034Y0254000D03*
X0610034Y0250260D03*
X0609334Y0296760D03*
X0609334Y0300500D03*
X0609334Y0304240D03*
X0599879Y0304240D03*
X0599879Y0296760D03*
X0599379Y0416460D03*
X0608834Y0416460D03*
X0608834Y0420200D03*
X0608834Y0423940D03*
X0599379Y0423940D03*
D22*
X0359181Y0199939D03*
X0359181Y0197380D03*
X0359181Y0194820D03*
X0359181Y0192261D03*
X0340831Y0192261D03*
X0340831Y0194820D03*
X0340831Y0197380D03*
X0340831Y0199939D03*
X0241481Y0273661D03*
X0241481Y0276220D03*
X0241481Y0278780D03*
X0241481Y0281339D03*
X0223131Y0281339D03*
X0223131Y0278780D03*
X0223131Y0276220D03*
X0223131Y0273661D03*
D23*
X0356587Y0293543D03*
X0356587Y0296102D03*
X0356587Y0298661D03*
X0356587Y0301220D03*
X0356587Y0303780D03*
X0356587Y0306339D03*
X0356587Y0308898D03*
X0356587Y0311457D03*
X0379225Y0311457D03*
X0379225Y0308898D03*
X0379225Y0306339D03*
X0379225Y0303780D03*
X0379225Y0301220D03*
X0379225Y0298661D03*
X0379225Y0296102D03*
X0379225Y0293543D03*
X0379225Y0370143D03*
X0379225Y0372702D03*
X0379225Y0375261D03*
X0379225Y0377820D03*
X0379225Y0380380D03*
X0379225Y0382939D03*
X0379225Y0385498D03*
X0379225Y0388057D03*
X0356587Y0388057D03*
X0356587Y0385498D03*
X0356587Y0382939D03*
X0356587Y0380380D03*
X0356587Y0377820D03*
X0356587Y0375261D03*
X0356587Y0372702D03*
X0356587Y0370143D03*
X0406587Y0177057D03*
X0406587Y0174498D03*
X0406587Y0171939D03*
X0406587Y0169380D03*
X0406587Y0166820D03*
X0406587Y0164261D03*
X0406587Y0161702D03*
X0406587Y0159143D03*
X0429225Y0159143D03*
X0429225Y0161702D03*
X0429225Y0164261D03*
X0429225Y0166820D03*
X0429225Y0169380D03*
X0429225Y0171939D03*
X0429225Y0174498D03*
X0429225Y0177057D03*
D24*
X0597679Y0366560D03*
X0597679Y0374040D03*
X0606734Y0374040D03*
X0606734Y0370300D03*
X0606734Y0366560D03*
D25*
X0636176Y0376200D03*
X0657436Y0376200D03*
X0661736Y0176000D03*
X0640476Y0176000D03*
D26*
X0282831Y0312805D03*
X0282831Y0314775D03*
X0282831Y0316745D03*
X0282831Y0318715D03*
X0282831Y0320685D03*
X0282831Y0322655D03*
X0282831Y0324625D03*
X0282831Y0326595D03*
X0264581Y0326595D03*
X0264581Y0324625D03*
X0264581Y0322655D03*
X0264581Y0320685D03*
X0264581Y0318715D03*
X0264581Y0316745D03*
X0264581Y0314775D03*
X0264581Y0312805D03*
X0264581Y0389405D03*
X0264581Y0391375D03*
X0264581Y0393345D03*
X0264581Y0395315D03*
X0264581Y0397285D03*
X0264581Y0399255D03*
X0264581Y0401225D03*
X0264581Y0403195D03*
X0282831Y0403195D03*
X0282831Y0401225D03*
X0282831Y0399255D03*
X0282831Y0397285D03*
X0282831Y0395315D03*
X0282831Y0393345D03*
X0282831Y0391375D03*
X0282831Y0389405D03*
D27*
X0190645Y0387125D03*
X0188086Y0387125D03*
X0185527Y0387125D03*
X0182968Y0387125D03*
X0182968Y0405475D03*
X0185527Y0405475D03*
X0188086Y0405475D03*
X0190645Y0405475D03*
X0190645Y0329175D03*
X0188086Y0329175D03*
X0185527Y0329175D03*
X0182968Y0329175D03*
X0182968Y0310825D03*
X0185527Y0310825D03*
X0188086Y0310825D03*
X0190645Y0310825D03*
D28*
X0261394Y0295500D03*
X0272418Y0295500D03*
X0271218Y0372100D03*
X0260194Y0372100D03*
D29*
X0293966Y0337300D03*
X0301446Y0337300D03*
X0301046Y0414500D03*
X0293566Y0414500D03*
M02*
